<svg version="1.1" id="Layer_1" xmlns="http://www.w3.org/2000/svg" x="0" y="0" viewBox="0 0 600.63 71.95" xml:space="preserve"><style>.st0{fill:#fff}.st2{font-size:58px}.st4{fill:#fff;stroke:#fff;stroke-miterlimit:10}</style><text transform="translate(0 54.561)" class="st0 st2" font-family="RobotoSlab-Bold">dovzhenko</text><text transform="translate(461.201 54.561)" class="st0 st2" font-family="Gilroy-ExtraBold">kino</text><path class="st4" d="M415.35 8.6c-4.46 0-8.1 3.63-8.1 8.1s3.63 8.1 8.1 8.1 8.1-3.63 8.1-8.1-3.63-8.1-8.1-8.1zm0 12.14c-2.23 0-4.05-1.82-4.05-4.05s1.82-4.05 4.05-4.05c2.23 0 4.05 1.82 4.05 4.05 0 2.23-1.81 4.05-4.05 4.05zm0 20.24c-4.46 0-8.1 3.63-8.1 8.1s3.63 8.1 8.1 8.1 8.1-3.63 8.1-8.1-3.63-8.1-8.1-8.1zm0 12.15c-2.23 0-4.05-1.82-4.05-4.05 0-2.23 1.82-4.05 4.05-4.05 2.23 0 4.05 1.82 4.05 4.05 0 2.23-1.81 4.05-4.05 4.05zm-16.19-28.34c-4.46 0-8.1 3.63-8.1 8.1 0 4.46 3.63 8.1 8.1 8.1s8.1-3.63 8.1-8.1-3.64-8.1-8.1-8.1zm0 12.14c-2.23 0-4.05-1.82-4.05-4.05 0-2.23 1.82-4.05 4.05-4.05 2.23 0 4.05 1.82 4.05 4.05 0 2.24-1.82 4.05-4.05 4.05zm32.39-12.14c-4.46 0-8.1 3.63-8.1 8.1 0 4.46 3.63 8.1 8.1 8.1s8.1-3.63 8.1-8.1-3.64-8.1-8.1-8.1zm0 12.14c-2.23 0-4.05-1.82-4.05-4.05 0-2.23 1.82-4.05 4.05-4.05 2.23 0 4.05 1.82 4.05 4.05a4.059 4.059 0 01-4.05 4.05zm-16.2-8.09c-2.23 0-4.05 1.82-4.05 4.05 0 2.23 1.82 4.05 4.05 4.05 2.23 0 4.05-1.82 4.05-4.05 0-2.24-1.81-4.05-4.05-4.05z"/><path class="st4" d="M447.74 61.22V30.86h-.06C446.64 13.94 432.61.5 415.35.5c-17.9 0-32.38 14.48-32.38 32.38 0 17.9 14.48 32.38 32.38 32.38 12.2 0 22.79-6.71 28.34-16.68v12.63c0 4.46 3.91 8.37 8.37 8.37v-4.05c-2.22.01-4.32-2.09-4.32-4.31zm-32.39 0c-15.62 0-28.34-12.71-28.34-28.34s12.71-28.34 28.34-28.34c15.62 0 28.34 12.71 28.34 28.34s-12.71 28.34-28.34 28.34z"/></svg>