<svg version="1.1" id="Layer_1" xmlns="http://www.w3.org/2000/svg" x="0" y="0" viewBox="0 0 653.94 79.74" xml:space="preserve"><style>.st0{fill:#fff}.st2{font-size:58px}</style><text transform="translate(0 62.351)" class="st0 st2" font-family="RobotoSlab-Bold">dovzhenko</text><text transform="translate(474.201 62.351)" class="st0 st2" font-family="Gilroy-ExtraBold">music</text><path class="st0" d="M459.56 19.35c-.57-.43-1.31-.57-1.99-.37l-32.17 9.1a2.28 2.28 0 00-1.66 2.19v30.81a9 9 0 00-4.55-1.22c-5.02 0-9.1 4.08-9.1 9.1s4.08 9.1 9.1 9.1 9.1-4.08 9.1-9.1V41.09l27.61-7.82v18.7a9 9 0 00-4.55-1.22c-5.02 0-9.1 4.08-9.1 9.1s4.08 9.1 9.1 9.1 9.1-4.08 9.1-9.1V21.16c.01-.71-.32-1.38-.89-1.81zm-40.37 54.16c-2.51 0-4.55-2.04-4.55-4.55s2.04-4.55 4.55-4.55 4.55 2.04 4.55 4.55-2.04 4.55-4.55 4.55zm32.17-9.11c-2.51 0-4.55-2.04-4.55-4.55s2.04-4.55 4.55-4.55 4.55 2.04 4.55 4.55-2.04 4.55-4.55 4.55zm4.55-35.85l-27.61 7.82V32l27.61-7.82v4.37zm0 0"/><path class="st0" d="M419.19 78.43c-5.23 0-9.48-4.25-9.48-9.48s4.25-9.48 9.48-9.48c1.45 0 2.88.33 4.18.97V30.27c0-1.18.79-2.23 1.93-2.55l32.17-9.1c.79-.22 1.66-.06 2.32.44.66.5 1.05 1.29 1.05 2.11v38.69c0 5.23-4.25 9.48-9.48 9.48s-9.48-4.25-9.48-9.48 4.25-9.48 9.48-9.48c1.45 0 2.88.33 4.18.97V33.77l-26.86 7.6v27.58c-.01 5.23-4.26 9.48-9.49 9.48zm0-18.2c-4.81 0-8.73 3.92-8.73 8.73 0 4.81 3.92 8.73 8.73 8.73 4.81 0 8.73-3.92 8.73-8.73V40.81l28.36-8.03v19.84l-.56-.33a8.66 8.66 0 00-4.36-1.17c-4.81 0-8.73 3.92-8.73 8.73 0 4.81 3.92 8.73 8.73 8.73 4.81 0 8.73-3.92 8.73-8.73V21.16c0-.59-.28-1.16-.75-1.52-.47-.36-1.1-.48-1.67-.31l-32.17 9.1c-.81.23-1.38.98-1.38 1.83v31.46l-.56-.33a8.818 8.818 0 00-4.37-1.16zm0 13.65c-2.72 0-4.93-2.21-4.93-4.93s2.21-4.93 4.93-4.93c2.72 0 4.93 2.21 4.93 4.93s-2.21 4.93-4.93 4.93zm0-9.1c-2.3 0-4.18 1.87-4.18 4.18s1.87 4.18 4.18 4.18c2.3 0 4.18-1.87 4.18-4.18s-1.87-4.18-4.18-4.18zm32.17 0c-2.72 0-4.93-2.21-4.93-4.93 0-2.72 2.21-4.93 4.93-4.93 2.72 0 4.93 2.21 4.93 4.93-.01 2.72-2.22 4.93-4.93 4.93zm0-9.1c-2.3 0-4.18 1.87-4.18 4.18 0 2.3 1.87 4.18 4.18 4.18 2.3 0 4.18-1.87 4.18-4.18-.01-2.31-1.88-4.18-4.18-4.18zm-23.44-18.82V31.7l28.36-8.03v5.15l-28.36 8.04zm.75-4.59v3.59l26.86-7.6v-3.59l-26.86 7.6zm-14.13-15.74c-5.05-3.7-8.75-7.37-11.31-11.21l-2.62-3.93a2.283 2.283 0 00-2.55-.92c-.96.29-1.62 1.18-1.62 2.18v35.67a9 9 0 00-4.55-1.22c-5.02 0-9.1 4.08-9.1 9.1s4.08 9.1 9.1 9.1 9.1-4.08 9.1-9.1V10c2.72 3.5 6.29 6.86 10.86 10.21a6.854 6.854 0 012.8 5.51c0 3.76-3.06 6.83-6.83 6.83a2.279 2.279 0 100 4.56c6.27 0 11.38-5.1 11.38-11.38-.01-3.63-1.75-7.06-4.66-9.2zm-22.66 34.22c-2.51 0-4.55-2.04-4.55-4.55s2.04-4.55 4.55-4.55 4.55 2.04 4.55 4.55-2.04 4.55-4.55 4.55zm0 0"/><path class="st0" d="M391.88 55.68c-5.23 0-9.48-4.25-9.48-9.48s4.25-9.48 9.48-9.48c1.45 0 2.88.33 4.18.97V2.65c0-1.18.76-2.2 1.88-2.54 1.12-.34 2.32.09 2.97 1.07l2.62 3.93c2.53 3.8 6.2 7.44 11.22 11.11 3.01 2.21 4.81 5.75 4.81 9.48 0 6.48-5.27 11.75-11.75 11.75-1.46 0-2.65-1.19-2.65-2.65s1.19-2.65 2.65-2.65c3.56 0 6.45-2.89 6.45-6.45 0-2.05-.99-4-2.64-5.21-4.24-3.11-7.61-6.21-10.26-9.44V46.2c0 5.22-4.25 9.48-9.48 9.48zm0-18.21c-4.81 0-8.73 3.92-8.73 8.73 0 4.81 3.92 8.73 8.73 8.73 4.81 0 8.73-3.92 8.73-8.73V8.9l.67.86c2.7 3.48 6.23 6.8 10.78 10.14a7.223 7.223 0 012.95 5.81c0 3.97-3.23 7.2-7.2 7.2a1.9 1.9 0 100 3.8c6.07 0 11-4.94 11-11 0-3.49-1.68-6.81-4.5-8.88-5.09-3.73-8.81-7.42-11.4-11.3l-2.62-3.93c-.47-.7-1.32-1.01-2.13-.76-.81.24-1.35.98-1.35 1.82v36.32l-.56-.33a8.735 8.735 0 00-4.37-1.18zm0 13.65c-2.72 0-4.93-2.21-4.93-4.93s2.21-4.93 4.93-4.93c2.72 0 4.93 2.21 4.93 4.93s-2.21 4.93-4.93 4.93zm0-9.1c-2.3 0-4.18 1.87-4.18 4.18s1.87 4.18 4.18 4.18c2.3 0 4.18-1.87 4.18-4.18s-1.88-4.18-4.18-4.18z"/></svg>