<svg version="1.1" id="Layer_1" xmlns="http://www.w3.org/2000/svg" x="0" y="0" viewBox="0 0 896.46 67.01" xml:space="preserve"><style>.st0{fill:#fff}.st2{font-size:58px}</style><text transform="translate(0 49.617)" class="st0 st2" font-family="RobotoSlab-Bold">dovzhenko</text><text transform="translate(480.201 49.617)" class="st0 st2" font-family="Gilroy-ExtraBold">performance</text><path class="st0" d="M415.65 29.1c0 4.69 3.81 8.5 8.5 8.5 4.69 0 8.5-3.81 8.5-8.5s-3.81-8.5-8.5-8.5c-4.69 0-8.5 3.81-8.5 8.5z"/><path class="st0" d="M465.01 27.82a47.407 47.407 0 00-16.94-17.08 47.153 47.153 0 00-23.91-6.51h-.04a47.08 47.08 0 00-23.91 6.51 47.407 47.407 0 00-16.94 17.08l-.74 1.28.74 1.28a47.407 47.407 0 0016.94 17.08 47.153 47.153 0 0023.91 6.51h.04c8.42 0 16.69-2.25 23.91-6.51a47.407 47.407 0 0016.94-17.08l.74-1.28-.74-1.28zm-21.1 1.28c0 10.89-8.86 19.76-19.75 19.77h-.04c-10.89-.01-19.75-8.87-19.75-19.77s8.86-19.76 19.75-19.77h.04c10.9.01 19.75 8.88 19.75 19.77zm-55.45 0c3.9-6.22 9.31-11.22 15.6-14.64-3 4.11-4.78 9.17-4.78 14.64s1.78 10.53 4.78 14.64a42.252 42.252 0 01-15.6-14.64zm55.77 14.64c3-4.11 4.78-9.17 4.78-14.64s-1.78-10.53-4.78-14.64c6.28 3.42 11.7 8.42 15.6 14.64a42.177 42.177 0 01-15.6 14.64z"/></svg>