<svg version="1.1" id="Layer_1" xmlns="http://www.w3.org/2000/svg" x="0" y="0" viewBox="0 0 635.72 73.45" xml:space="preserve"><style>.st0{fill:#fff}.st2{font-size:58px}</style><text transform="translate(0 56.065)" class="st0 st2" font-family="RobotoSlab-Bold">dovzhenko</text><text transform="translate(469.201 56.065)" class="st0 st2" font-family="Gilroy-ExtraBold">talks</text><path class="st0" d="M450.03 51.77a23.47 23.47 0 002.27-10.12c0-12.67-10.05-23.04-22.65-23.65C426.81 7.78 417.49.65 406.83.65c-13.13 0-23.82 10.62-23.82 23.68 0 3.55.76 6.95 2.27 10.12l-2.23 11.13c-.28 1.42.97 2.67 2.38 2.39l11.27-2.23a23.35 23.35 0 008.95 2.24c3.94 14.2 19.79 21.33 32.94 15.08 12.34 2.44 11.38 2.27 11.66 2.27 1.28 0 2.24-1.18 1.99-2.43l-2.21-11.13zm-52.12-9.96c-.41-.21-.87-.27-1.32-.18l-8.96 1.77 1.77-8.83c.09-.45.03-.91-.18-1.32a19.423 19.423 0 01-2.14-8.92c0-10.82 8.86-19.62 19.76-19.62 8.51 0 16.01 5.54 18.63 13.45-12.41 1.59-21.76 12.78-20.56 25.7a19.3 19.3 0 01-7-2.05zm48 10.08l1.77 8.83-8.96-1.77c-.45-.09-.91-.02-1.32.18a19.423 19.423 0 01-8.92 2.14c-10.82 0-19.62-8.8-19.62-19.62s8.8-19.62 19.62-19.62c10.89 0 19.76 8.8 19.76 19.62 0 3.14-.72 6.14-2.14 8.92-.21.41-.28.87-.19 1.32z"/><path class="st0" d="M428.52 65.99c-3.45 0-6.91-.74-10.15-2.22a24.24 24.24 0 01-13.21-15.16c-2.98-.2-5.85-.93-8.54-2.18l-11.06 2.19a2.685 2.685 0 01-3.15-3.16l2.18-10.92c-1.48-3.2-2.24-6.63-2.24-10.2C382.36 10.91 393.33 0 406.82 0c10.74 0 20.26 7.12 23.32 17.38 12.82.86 22.8 11.43 22.8 24.27 0 3.57-.75 7-2.24 10.2l2.18 10.92c.16.79-.04 1.6-.56 2.22-.51.62-1.27.98-2.07.98-.22.01-.22.01-5.07-.95l-6.51-1.29a23.805 23.805 0 01-10.15 2.26zm9.99-3.6l6.93 1.37c3.64.72 4.62.92 4.76.93.47 0 .86-.19 1.12-.51.26-.32.37-.74.29-1.15l-2.27-11.34.09-.19c1.46-3.08 2.2-6.39 2.2-9.84 0-12.3-9.68-22.41-22.03-23l-.47-.02-.13-.45c-2.76-9.93-11.88-16.87-22.2-16.87-12.77 0-23.17 10.33-23.17 23.03 0 3.45.74 6.76 2.2 9.84l.09.19-2.27 11.34c-.09.46.05.91.38 1.24.33.33.78.47 1.24.38l11.48-2.27.19.09c2.74 1.3 5.67 2.03 8.71 2.17l.47.02.13.45c1.82 6.56 6.42 11.94 12.63 14.78 6.21 2.84 13.28 2.8 19.41-.11l.22-.08zm-10.03-.47c-11.18 0-20.27-9.09-20.27-20.27s9.09-20.27 20.27-20.27c11.25 0 20.41 9.09 20.41 20.27 0 3.25-.74 6.35-2.21 9.21-.14.28-.19.6-.12.9l1.96 9.78-9.92-1.96c-.31-.06-.62-.02-.9.12a19.968 19.968 0 01-9.22 2.22zm0-39.24c-10.46 0-18.97 8.51-18.97 18.97s8.51 18.97 18.97 18.97c3.04 0 5.94-.7 8.62-2.07a2.68 2.68 0 011.74-.24l8.01 1.58-1.57-7.88c-.12-.59-.03-1.21.24-1.75 1.37-2.68 2.07-5.58 2.07-8.62-.01-10.45-8.58-18.96-19.11-18.96zm-22.86 21.9l-.78-.08c-2.53-.24-4.96-.95-7.23-2.11a1.47 1.47 0 00-.9-.13l-9.92 1.96 1.96-9.78c.06-.3.02-.62-.12-.9a20.023 20.023 0 01-2.21-9.22c0-11.18 9.15-20.27 20.41-20.27 8.76 0 16.5 5.59 19.25 13.9l.25.75-.78.1c-12.37 1.58-21.15 12.56-19.99 24.99l.06.79zm-8.64-3.64c.42 0 .84.1 1.22.29 1.89.97 3.9 1.6 5.99 1.89-.76-12.54 8.01-23.5 20.39-25.49a18.938 18.938 0 00-17.75-12.27c-10.54 0-19.11 8.51-19.11 18.97 0 3.04.7 5.94 2.07 8.62.27.54.36 1.16.24 1.75l-1.57 7.88 8.01-1.58c.16-.04.34-.06.51-.06z"/></svg>