<svg version="1.1" id="Layer_1" xmlns="http://www.w3.org/2000/svg" x="0" y="0" viewBox="0 0 643.27 72.09" xml:space="preserve"><style>.st0{fill:#fff}.st2{font-size:58px}</style><text transform="translate(0 54.704)" class="st0 st2" font-family="RobotoSlab-Bold">dovzhenko</text><text transform="translate(474.2 54.704)" class="st0 st2" font-family="Gilroy-ExtraBold">teatr</text><path class="st0" d="M457.44 4.33c-.26-.18-6.49-4.33-21.76-4.33-15.27 0-21.5 4.15-21.76 4.33-.62.43-.99 1.13-.99 1.89v4.55c-3.48.69-8.13 2.07-13.89 4.78-13.82 6.48-17.7 12.89-17.86 13.16-.38.65-.42 1.45-.1 2.13l9.31 19.84c4.58 9.75 14.32 15.69 24.68 15.69 2.3 0 4.62-.29 6.93-.9.01 0 .01 0 .02-.01.26-.07.51-.19.73-.35a27.1 27.1 0 009.03-11.05c1.13.36 2.29.66 3.48.88l.21.03c.07.01.14.01.21.01.14 0 .28-.01.41-.04 12.94-2.38 22.34-13.66 22.34-26.82V6.22c0-.76-.37-1.46-.99-1.89zm-62.9 44.41l-8.73-18.6c1.52-1.8 5.79-6.04 15.17-10.44 9.39-4.4 15.37-4.97 17.73-4.99l8.73 18.6c4.59 9.79 1.64 21.43-7.01 27.85-10.46 2.53-21.3-2.64-25.89-12.42zm59.31-20.6c0 10.81-7.62 20.09-18.17 22.24-.81-.16-1.61-.37-2.38-.62 1.1-4.27 1.17-8.8.11-13.2 2.84-.79 6.01-.07 8.24 2.16.45.45 1.03.67 1.62.67.59 0 1.17-.22 1.62-.67a2.3 2.3 0 000-3.24c-3.49-3.49-8.49-4.58-12.93-3.27-.12-.28-.25-.57-.38-.85l-3.71-7.92c1.85-.02 3.59-.74 4.9-2.05.89-.89.89-2.34 0-3.24s-2.34-.89-3.24 0c-.46.46-1.07.71-1.72.71-.65 0-1.26-.25-1.72-.71-.28-.28-.62-.48-.98-.58l-2.84-6.05a2.3 2.3 0 00-1.7-1.29c-.11-.02-1.14-.17-3.06-.06V7.59c2.12-.98 7.78-3.01 18.17-3.01 10.37 0 16.03 2.03 18.17 3.01v20.55z"/><path class="st0" d="M444.53 23.44a7 7 0 004.96-2.05 2.3 2.3 0 000-3.24 2.3 2.3 0 00-3.24 0c-.46.46-1.07.71-1.72.71-.65 0-1.26-.25-1.72-.71a2.3 2.3 0 00-3.24 0 2.3 2.3 0 000 3.24 7 7 0 004.96 2.05zm-38.35 14.19a2.29 2.29 0 00-1.38-2.93 6.93 6.93 0 00-5.36.25 6.96 6.96 0 00-3.61 3.96 2.29 2.29 0 001.38 2.93 2.278 2.278 0 002.93-1.37c.22-.61.67-1.1 1.25-1.37.59-.28 1.25-.31 1.86-.09 1.18.42 2.5-.19 2.93-1.38zm6.16-2.89a2.278 2.278 0 002.93-1.37c.22-.61.67-1.1 1.25-1.37.59-.28 1.25-.31 1.86-.09a2.29 2.29 0 101.55-4.31c-3.63-1.31-7.66.58-8.97 4.21-.43 1.18.19 2.5 1.38 2.93zm10.09 8.98a2.29 2.29 0 10-4.31-1.55c-1.58 4.38-6.43 6.66-10.81 5.07a2.29 2.29 0 10-1.55 4.31c1.46.53 2.95.78 4.41.78 5.33-.01 10.35-3.31 12.26-8.61z"/></svg>